<svg xmlns="http://www.w3.org/2000/svg" width="24" height="24" viewBox="0 0 24 24" fill="#0A66C2">
<path d="M22.225 0H1.771C.792 0 0 .774 0 1.729v20.542C0 23.226.792 24 1.771 24h20.451C23.2 24 24 23.226 24 22.271V1.729C24 .774 23.2 0 22.225 0zM7.119 20.452H3.562V9h3.557v11.452zM5.34 7.557c-1.139 0-2.062-.93-2.062-2.077 0-1.147.923-2.077 2.062-2.077 1.137 0 2.062.93 2.062 2.077 0 1.147-.925 2.077-2.062 2.077zM20.452 20.452h-3.554v-5.605c0-1.337-.027-3.06-1.865-3.06-1.868 0-2.154 1.46-2.154 2.967v5.698h-3.553V9h3.414v1.561h.049c.476-.9 1.635-1.85 3.366-1.85 3.596 0 4.263 2.367 4.263 5.448v6.293z"/>
</svg>