<svg xmlns="http://www.w3.org/2000/svg" viewBox="0 0 512 512" aria-hidden="true">
  <path fill="#6a9fd2" d="M256 32C114.6 32 0 135.3 0 264c0 70.9 35.2 133.9 90.6 175.7V480l83-45.6c25.6 7.1 52.8 10.9 82.4 10.9 141.4 0 256-103.3 256-232S397.4 32 256 32z"/>
  <path fill="#fff" d="M134.4 326.7l104.8-111.8c10-10.6 26.6-12.2 38.6-3.8l58.7 41.2 63.1-68.9c11.7-12.8 31.8-6 34.5 11l13.8 86.5c2.7 16.9-16.7 28.1-30.8 18.3l-58.7-41.2-63.1 68.9c-11.7 12.8-31.8 6-34.5-11l-13.8-86.5c-2.7-16.9-24.1-22.3-34.5-11L134.4 326.7z"/>
</svg>